<mxfile host="Electron" modified="2024-02-04T20:05:03.391Z" agent="Mozilla/5.0 (Macintosh; Intel Mac OS X 10_15_7) AppleWebKit/537.36 (KHTML, like Gecko) draw.io/23.0.2 Chrome/120.0.6099.109 Electron/28.1.0 Safari/537.36" etag="4K2DMiT5TxNanOjMOiYJ" version="23.0.2" type="device">
  <diagram name="Page-1" id="nz8_5_e1gvYjseirS0Rg">
    <mxGraphModel dx="2141" dy="924" grid="1" gridSize="10" guides="1" tooltips="1" connect="1" arrows="1" fold="1" page="1" pageScale="1" pageWidth="827" pageHeight="1169" math="0" shadow="0">
      <root>
        <mxCell id="0" />
        <mxCell id="1" parent="0" />
        <mxCell id="7SnafQdKhrRNESV38Fov-7" value="" style="rounded=1;whiteSpace=wrap;html=1;" parent="1" vertex="1">
          <mxGeometry x="20" y="350" width="510" height="360" as="geometry" />
        </mxCell>
        <mxCell id="7SnafQdKhrRNESV38Fov-14" value="Helm Chart &lt;br&gt;(Service bootstrap)" style="rounded=1;whiteSpace=wrap;html=1;verticalAlign=top;" parent="1" vertex="1">
          <mxGeometry x="220" y="290" width="260" height="410" as="geometry" />
        </mxCell>
        <mxCell id="7SnafQdKhrRNESV38Fov-13" value="Helm Chart &lt;br&gt;(Tenant bootstrap)" style="rounded=1;whiteSpace=wrap;html=1;verticalAlign=top;" parent="1" vertex="1">
          <mxGeometry x="90" y="290" width="120" height="410" as="geometry" />
        </mxCell>
        <mxCell id="7SnafQdKhrRNESV38Fov-18" value="Managed Resources" style="rounded=1;whiteSpace=wrap;html=1;align=left;" parent="1" vertex="1">
          <mxGeometry x="-90" y="590" width="600" height="70" as="geometry" />
        </mxCell>
        <mxCell id="7SnafQdKhrRNESV38Fov-12" value="Compositions" style="rounded=1;whiteSpace=wrap;html=1;align=left;" parent="1" vertex="1">
          <mxGeometry x="-90" y="430" width="600" height="80" as="geometry" />
        </mxCell>
        <mxCell id="7SnafQdKhrRNESV38Fov-11" value="Composite name" style="rounded=1;whiteSpace=wrap;html=1;align=left;" parent="1" vertex="1">
          <mxGeometry x="-90" y="540" width="600" height="30" as="geometry" />
        </mxCell>
        <mxCell id="7SnafQdKhrRNESV38Fov-1" value="ECSTaskDef" style="rounded=1;whiteSpace=wrap;html=1;fillColor=#dae8fc;strokeColor=#6c8ebf;" parent="1" vertex="1">
          <mxGeometry x="350" y="440" width="120" height="60" as="geometry" />
        </mxCell>
        <mxCell id="7SnafQdKhrRNESV38Fov-2" value="ECSCluster" style="rounded=1;whiteSpace=wrap;html=1;fillColor=#dae8fc;strokeColor=#6c8ebf;" parent="1" vertex="1">
          <mxGeometry x="90" y="440" width="120" height="60" as="geometry" />
        </mxCell>
        <mxCell id="7SnafQdKhrRNESV38Fov-3" value="ECSService" style="rounded=1;whiteSpace=wrap;html=1;fillColor=#dae8fc;strokeColor=#6c8ebf;" parent="1" vertex="1">
          <mxGeometry x="220" y="440" width="120" height="60" as="geometry" />
        </mxCell>
        <mxCell id="7SnafQdKhrRNESV38Fov-4" value="${tenant}" style="text;html=1;strokeColor=none;fillColor=none;align=center;verticalAlign=middle;whiteSpace=wrap;rounded=0;" parent="1" vertex="1">
          <mxGeometry x="120" y="540" width="60" height="30" as="geometry" />
        </mxCell>
        <mxCell id="7SnafQdKhrRNESV38Fov-5" value="${tenant-service}" style="text;html=1;strokeColor=none;fillColor=none;align=center;verticalAlign=middle;whiteSpace=wrap;rounded=0;" parent="1" vertex="1">
          <mxGeometry x="230" y="540" width="100" height="30" as="geometry" />
        </mxCell>
        <mxCell id="7SnafQdKhrRNESV38Fov-6" value="${tenant-service-hash}" style="text;html=1;strokeColor=none;fillColor=none;align=center;verticalAlign=middle;whiteSpace=wrap;rounded=0;" parent="1" vertex="1">
          <mxGeometry x="350" y="540" width="126" height="30" as="geometry" />
        </mxCell>
        <mxCell id="7SnafQdKhrRNESV38Fov-8" value="" style="endArrow=none;dashed=1;html=1;dashPattern=1 3;strokeWidth=2;rounded=0;" parent="1" edge="1">
          <mxGeometry width="50" height="50" relative="1" as="geometry">
            <mxPoint x="216" y="710" as="sourcePoint" />
            <mxPoint x="216" y="360" as="targetPoint" />
          </mxGeometry>
        </mxCell>
        <mxCell id="7SnafQdKhrRNESV38Fov-15" value="Cluster" style="rounded=1;whiteSpace=wrap;html=1;fillColor=#fff2cc;strokeColor=#d6b656;" parent="1" vertex="1">
          <mxGeometry x="115" y="600" width="70" height="40" as="geometry" />
        </mxCell>
        <mxCell id="7SnafQdKhrRNESV38Fov-16" value="Service" style="rounded=1;whiteSpace=wrap;html=1;fillColor=#fff2cc;strokeColor=#d6b656;" parent="1" vertex="1">
          <mxGeometry x="245" y="600" width="70" height="40" as="geometry" />
        </mxCell>
        <mxCell id="7SnafQdKhrRNESV38Fov-17" value="Task Definition" style="rounded=1;whiteSpace=wrap;html=1;fillColor=#fff2cc;strokeColor=#d6b656;" parent="1" vertex="1">
          <mxGeometry x="370" y="600" width="90" height="40" as="geometry" />
        </mxCell>
        <mxCell id="7SnafQdKhrRNESV38Fov-19" value="Cluster" style="rounded=1;whiteSpace=wrap;html=1;fillColor=#fff2cc;strokeColor=#d6b656;" parent="1" vertex="1">
          <mxGeometry x="120" y="605" width="70" height="40" as="geometry" />
        </mxCell>
        <mxCell id="7SnafQdKhrRNESV38Fov-20" value="Service" style="rounded=1;whiteSpace=wrap;html=1;fillColor=#fff2cc;strokeColor=#d6b656;" parent="1" vertex="1">
          <mxGeometry x="250" y="605" width="70" height="40" as="geometry" />
        </mxCell>
      </root>
    </mxGraphModel>
  </diagram>
</mxfile>
